# xmcd
#
# Track frame offsets:
#  150
#  21936
#  38330
#  51947
#  73699
#  94976
#  119215
#  145480
#  169356
#  191609
#  214041
#  239329
#  258053
#  268290
#
# Disc length: 3949 seconds
#
# Revision: 0
# Processed by: cddbd v1.5.1PL0 Copyright (c) Steve Scherf et al.
# Submitted via: AltoMP3_Maker 3.0
#
DISCID=d80f6b0e
DTITLE=Voodoo DeVille - Lookin' For The Promised Land
DYEAR=1900
DGENRE=
TTITLE0=Lookin' For The Promised Land
TTITLE1=Jumpin' Rockin' Rhythm
TTITLE2=I Fought The Law
TTITLE3=Get Over Yourself
TTITLE4=Hoochie Coochie Coo
TTITLE5=Don't Matter How Good She Looks
TTITLE6=Good Man
TTITLE7=Three Legged Dog
TTITLE8=Options
TTITLE9=T-Bone Boogie
TTITLE10=Screamin' Into My Pillow
TTITLE11=Country Ham Boogie
TTITLE12=Brand New Cadillac
TTITLE13=Blues Affliction
EXTD=
EXTT0=
EXTT1=
EXTT2=
EXTT3=
EXTT4=
EXTT5=
EXTT6=
EXTT7=
EXTT8=
EXTT9=
EXTT10=
EXTT11=
EXTT12=
EXTT13=
PLAYORDER=
